# xmcd CD database file
#
# Track frame offsets:
#	150
#	17552
#	36677
#	61502
#	79577
#	104895
#	125702
#	143380
#	173617
#	200212
#	219980
#	233555
#	255117
#
# Disc length: 3698 seconds
#
# Revision: 1
# Processed by: cddbd v1.5.2PL0 Copyright (c) Steve Scherf et al.
# Submitted via: jetAudio 7
#
DISCID=aa0e700d
DTITLE=Salta Cello - Salta Cello - Second Flush
DYEAR=1998
DGENRE=Jazz
TTITLE0=Something's Coming
TTITLE1=Sketches Red And Black
TTITLE2=The Yellow Cello
TTITLE3=A Little Waltz In A White Night
TTITLE4=Dawn Chorus (nageunae- Seoul Whoom - Lee Jae Ho)
TTITLE5=Beware Of The Tango
TTITLE6=Sir Joe
TTITLE7=Trilogy Part One
TTITLE8=Trilogy Part Two
TTITLE9=Trilogy Part Three
TTITLE10=Dragon's Dance
TTITLE11=Lullaby
TTITLE12=East Circle (Jindo-Arirang - Korean Traditinal Music)
EXTD=YEAR: 1998
EXTT0=
EXTT1=
EXTT2=
EXTT3=
EXTT4=
EXTT5=
EXTT6=
EXTT7=
EXTT8=
EXTT9=
EXTT10=
EXTT11=
EXTT12=
PLAYORDER=
